REM DIRINDEX 1\2,1\3,1\4
REM DIRNAME folder01,folder02,folder03,folder04
TITLE ""
FILE "Track13.mp3" MP3
  TRACK 01 AUDIO
    TITLE "0:"
    INDEX 01 00:00:00
  TRACK 02 AUDIO
    TITLE "4:cjc153_0713"
    INDEX 01 00:00:09
  TRACK 03 AUDIO
    TITLE "0:"
    INDEX 01 00:02:06
  TRACK 04 AUDIO
    TITLE "2:cjc153_0714"
    INDEX 01 00:02:71
  TRACK 05 AUDIO
    TITLE "0:"
    INDEX 01 00:04:03
  TRACK 06 AUDIO
    TITLE "3:cjc153_0715"
    INDEX 01 00:04:38
  TRACK 07 AUDIO
    TITLE "0:"
    INDEX 01 00:05:48
  TRACK 08 AUDIO
    TITLE "2:cjc153_0716"
    INDEX 01 00:06:18
  TRACK 09 AUDIO
    TITLE "0:"
    INDEX 01 00:07:21
  TRACK 10 AUDIO
    TITLE "3:cjc153_0717"
    INDEX 01 00:07:60
  TRACK 11 AUDIO
    TITLE "0:"
    INDEX 01 00:08:68
  TRACK 12 AUDIO
    TITLE "2:cjc153_0718"
    INDEX 01 00:09:44
  TRACK 13 AUDIO
    TITLE "0:"
    INDEX 01 00:10:53
  TRACK 14 AUDIO
    TITLE "3:cjc153_0719"
    INDEX 01 00:11:17
  TRACK 15 AUDIO
    TITLE "0:"
    INDEX 01 00:12:24
  TRACK 16 AUDIO
    TITLE "2:cjc153_0720"
    INDEX 01 00:12:73
  TRACK 17 AUDIO
    TITLE "0:"
    INDEX 01 00:14:02
  TRACK 18 AUDIO
    TITLE "3:cjc153_0721"
    INDEX 01 00:14:41
  TRACK 19 AUDIO
    TITLE "0:"
    INDEX 01 00:15:50
  TRACK 20 AUDIO
    TITLE "2:cjc153_0722"
    INDEX 01 00:16:24
  TRACK 21 AUDIO
    TITLE "0:"
    INDEX 01 00:17:27
  TRACK 22 AUDIO
    TITLE "3:cjc153_0723"
    INDEX 01 00:17:63
  TRACK 23 AUDIO
    TITLE "0:"
    INDEX 01 00:18:68
  TRACK 24 AUDIO
    TITLE "2:cjc153_0724"
    INDEX 01 00:19:44
  TRACK 25 AUDIO
    TITLE "0:"
    INDEX 01 00:20:49
  TRACK 26 AUDIO
    TITLE "3:cjc153_0725"
    INDEX 01 00:21:09
  TRACK 27 AUDIO
    TITLE "0:"
    INDEX 01 00:22:15
  TRACK 28 AUDIO
    TITLE "2:cjc153_0726"
    INDEX 01 00:22:64
  TRACK 29 AUDIO
    TITLE "0:"
    INDEX 01 00:23:65
  TRACK 30 AUDIO
    TITLE "3:cjc153_0727"
    INDEX 01 00:24:16
  TRACK 31 AUDIO
    TITLE "0:"
    INDEX 01 00:25:21
  TRACK 32 AUDIO
    TITLE "2:cjc153_0728"
    INDEX 01 00:25:68
  TRACK 33 AUDIO
    TITLE "0:"
    INDEX 01 00:27:00
  TRACK 34 AUDIO
    TITLE "3:cjc153_0729"
    INDEX 01 00:27:36
  TRACK 35 AUDIO
    TITLE "0:"
    INDEX 01 00:28:41
  TRACK 36 AUDIO
    TITLE "2:cjc153_0730"
    INDEX 01 00:29:11
  TRACK 37 AUDIO
    TITLE "0:"
    INDEX 01 00:30:08
  TRACK 38 AUDIO
    TITLE "3:cjc153_0731"
    INDEX 01 00:30:42
  TRACK 39 AUDIO
    TITLE "0:"
    INDEX 01 00:31:41
  TRACK 40 AUDIO
    TITLE "2:cjc153_0732"
    INDEX 01 00:32:15
  TRACK 41 AUDIO
    TITLE "0:"
    INDEX 01 00:33:26
  TRACK 42 AUDIO
    TITLE "3:cjc153_0733"
    INDEX 01 00:33:62
  TRACK 43 AUDIO
    TITLE "0:"
    INDEX 01 00:35:00
  TRACK 44 AUDIO
    TITLE "2:cjc153_0734"
    INDEX 01 00:35:47
  TRACK 45 AUDIO
    TITLE "0:"
    INDEX 01 00:36:60
  TRACK 46 AUDIO
    TITLE "3:cjc153_0735"
    INDEX 01 00:37:22
  TRACK 47 AUDIO
    TITLE "0:"
    INDEX 01 00:38:43
  TRACK 48 AUDIO
    TITLE "2:cjc153_0736"
    INDEX 01 00:39:13
  TRACK 49 AUDIO
    TITLE "0:"
    INDEX 01 00:40:21
  TRACK 50 AUDIO
    TITLE "3:cjc153_0737"
    INDEX 01 00:40:58
  TRACK 51 AUDIO
    TITLE "0:"
    INDEX 01 00:41:69
  TRACK 52 AUDIO
    TITLE "2:cjc153_0738"
    INDEX 01 00:42:43
  TRACK 53 AUDIO
    TITLE "0:"
    INDEX 01 00:43:54
  TRACK 54 AUDIO
    TITLE "3:cjc153_0739"
    INDEX 01 00:44:16
  TRACK 55 AUDIO
    TITLE "0:"
    INDEX 01 00:45:30
  TRACK 56 AUDIO
    TITLE "2:cjc153_0740"
    INDEX 01 00:46:04
  TRACK 57 AUDIO
    TITLE "0:"
    INDEX 01 00:47:15
  TRACK 58 AUDIO
    TITLE "3:cjc153_0741"
    INDEX 01 00:47:46
  TRACK 59 AUDIO
    TITLE "0:"
    INDEX 01 00:48:57
  TRACK 60 AUDIO
    TITLE "2:cjc153_0742"
    INDEX 01 00:49:29
  TRACK 61 AUDIO
    TITLE "0:"
    INDEX 01 00:50:60
  TRACK 62 AUDIO
    TITLE "3:cjc153_0743"
    INDEX 01 00:51:20
  TRACK 63 AUDIO
    TITLE "0:"
    INDEX 01 00:52:57
  TRACK 64 AUDIO
    TITLE "2:cjc153_0744"
    INDEX 01 00:53:29
  TRACK 65 AUDIO
    TITLE "0:"
    INDEX 01 00:54:48
  TRACK 66 AUDIO
    TITLE "3:cjc153_0745"
    INDEX 01 00:55:08
  TRACK 67 AUDIO
    TITLE "0:"
    INDEX 01 00:56:25
  TRACK 68 AUDIO
    TITLE "2:cjc153_0746"
    INDEX 01 00:56:74
  TRACK 69 AUDIO
    TITLE "0:"
    INDEX 01 00:58:11
  TRACK 70 AUDIO
    TITLE "3:cjc153_0747"
    INDEX 01 00:58:48
  TRACK 71 AUDIO
    TITLE "0:"
    INDEX 01 00:59:65
  TRACK 72 AUDIO
    TITLE "2:cjc153_0748"
    INDEX 01 01:00:39
  TRACK 73 AUDIO
    TITLE "0:"
    INDEX 01 01:01:48
  TRACK 74 AUDIO
    TITLE "3:cjc153_0749"
    INDEX 01 01:02:06
  TRACK 75 AUDIO
    TITLE "0:"
    INDEX 01 01:03:18
  TRACK 76 AUDIO
    TITLE "2:cjc153_0750"
    INDEX 01 01:03:67
  TRACK 77 AUDIO
    TITLE "0:"
    INDEX 01 01:05:03
  TRACK 78 AUDIO
    TITLE "3:cjc153_0751"
    INDEX 01 01:05:38
  TRACK 79 AUDIO
    TITLE "0:"
    INDEX 01 01:06:55
  TRACK 80 AUDIO
    TITLE "2:cjc153_0752"
    INDEX 01 01:07:29
  TRACK 81 AUDIO
    TITLE "0:"
    INDEX 01 01:08:27
  TRACK 82 AUDIO
    TITLE "3:cjc153_0753"
    INDEX 01 01:08:64
  TRACK 83 AUDIO
    TITLE "0:"
    INDEX 01 01:09:67
  TRACK 84 AUDIO
    TITLE "2:cjc153_0754"
    INDEX 01 01:10:39
  TRACK 85 AUDIO
    TITLE "0:"
    INDEX 01 01:11:45
  TRACK 86 AUDIO
    TITLE "3:cjc153_0755"
    INDEX 01 01:12:07
  TRACK 87 AUDIO
    TITLE "0:"
    INDEX 01 01:13:14
  TRACK 88 AUDIO
    TITLE "2:cjc153_0756"
    INDEX 01 01:13:63
  TRACK 89 AUDIO
    TITLE "0:"
    INDEX 01 01:15:09
  TRACK 90 AUDIO
    TITLE "3:cjc153_0757"
    INDEX 01 01:15:44
  TRACK 91 AUDIO
    TITLE "0:"
    INDEX 01 01:16:69
  TRACK 92 AUDIO
    TITLE "2:cjc153_0758"
    INDEX 01 01:17:39
  TRACK 93 AUDIO
    TITLE "0:"
    INDEX 01 01:18:35
  TRACK 94 AUDIO
    TITLE "3:cjc153_0759"
    INDEX 01 01:18:70
  TRACK 95 AUDIO
    TITLE "0:"
    INDEX 01 01:20:00
  TRACK 96 AUDIO
    TITLE "2:cjc153_0760"
    INDEX 01 01:20:48
  TRACK 97 AUDIO
    TITLE "0:"
    INDEX 01 01:21:51
  TRACK 98 AUDIO
    TITLE "3:cjc153_0761"
    INDEX 01 01:22:11
  TRACK 99 AUDIO
    TITLE "0:"
    INDEX 01 01:23:20
  TRACK 100 AUDIO
    TITLE "2:cjc153_0762"
    INDEX 01 01:23:71
  TRACK 101 AUDIO
    TITLE "0:"
    INDEX 01 01:25:06
  TRACK 102 AUDIO
    TITLE "3:cjc153_0763"
    INDEX 01 01:25:41
  TRACK 103 AUDIO
    TITLE "0:"
    INDEX 01 01:26:54
  TRACK 104 AUDIO
    TITLE "2:cjc153_0764"
    INDEX 01 01:27:28
  TRACK 105 AUDIO
    TITLE "0:"
    INDEX 01 01:28:31
  TRACK 106 AUDIO
    TITLE "3:cjc153_0765"
    INDEX 01 01:28:65
  TRACK 107 AUDIO
    TITLE "0:"
    INDEX 01 01:29:72
  TRACK 108 AUDIO
    TITLE "2:cjc153_0766"
    INDEX 01 01:30:46
  TRACK 109 AUDIO
    TITLE "0:"
    INDEX 01 01:31:69
  TRACK 110 AUDIO
    TITLE "3:cjc153_0767"
    INDEX 01 01:32:31
  TRACK 111 AUDIO
    TITLE "0:"
    INDEX 01 01:33:50
  TRACK 112 AUDIO
    TITLE "2:cjc153_0768"
    INDEX 01 01:34:24
  TRACK 113 AUDIO
    TITLE "0:"
    INDEX 01 01:35:20
  TRACK 114 AUDIO
    TITLE "3:cjc153_0769"
    INDEX 01 01:35:57
  TRACK 115 AUDIO
    TITLE "0:"
    INDEX 01 01:36:60
  TRACK 116 AUDIO
    TITLE "2:cjc153_0770"
    INDEX 01 01:37:24
  TRACK 117 AUDIO
    TITLE "0:"
    INDEX 01 01:38:30
  TRACK 118 AUDIO
    TITLE "3:cjc153_0771"
    INDEX 01 01:38:57
  TRACK 119 AUDIO
    TITLE "0:"
    INDEX 01 01:39:66
